<svg id="Laag_1" data-name="Laag 1" xmlns="http://www.w3.org/2000/svg" viewBox="0 0 123.14 121.29"><defs><style>.cls-1{fill:#046669;}.cls-2{fill:#88bd40;}.cls-3{fill:#89bd40;}.cls-4{fill:#056669;}.cls-5{fill:#0a6a6c;}.cls-6{fill:#fdfefe;}</style></defs><path class="cls-1" d="M129.29,51.7a17.94,17.94,0,0,1-13.61,17.43c-.74.17-2.11,1-2.17-.71,0-1.14-1.35-2.66,1.08-3.34,7.06-2,11-7.63,10.54-14.5C124.64,44.05,119.72,39,112.84,38S98.59,42.48,97.77,49.81c-.28,2.57-1.78,1.88-3.12,1.88-2.08,0-1.12-1.52-1-2.43A17.28,17.28,0,0,1,102.78,36c1.34-.74,1.27-1.26.47-2.29A9.73,9.73,0,0,0,91,31.14c-1.93,1.06-2.57,1-3.35-1.23A29.57,29.57,0,0,0,58.12,10.13C45.43,10.67,34.29,19.92,31,32.6c-.41,1.58-.53,2.79,1.43,3.28a5,5,0,0,1,1.44.83c.7.49,2,.93,1.78,1.7a5.91,5.91,0,0,1-2,2.53c-.76.65-1.26-.33-1.8-.68A13.79,13.79,0,1,0,20.25,64.94c1.72.47,2.08,1.1,1.87,2.74s-1,1.84-2.42,1.47a18,18,0,0,1-.27-34.75,14.13,14.13,0,0,1,5.2-.49c1.5.16,2-.37,2.33-1.81a33.69,33.69,0,0,1,62.91-7.6c.78,1.53,1.44,2,3.19,1.65A12.9,12.9,0,0,1,106.89,32a3.94,3.94,0,0,0,4,1.94A17.68,17.68,0,0,1,129.29,51.7Z" transform="translate(-6.15 -5.99)"/><path class="cls-2" d="M81.75,103.25c-4.78,8.19-9.29,15.93-14,24l-14-24c2.23,0,4-.12,5.84,0s2.27-.46,2.26-2.25c-.08-12.73-.06-25.46,0-38.19,0-3.61-.45-3.12,3.17-3.16,2.23,0,4.47.13,6.68,0,1.87-.15,2.21.57,2.2,2.28-.07,12.89,0,25.78-.09,38.67,0,2.23.61,2.92,2.75,2.69C78.05,103.12,79.64,103.25,81.75,103.25Z" transform="translate(-6.15 -5.99)"/><path class="cls-3" d="M101.46,117.37l-14-24.09c2.15,0,3.88-.11,5.57,0,1.85.16,2.44-.41,2.41-2.34-.1-8.91,0-17.83-.09-26.74,0-2,.34-2.89,2.57-2.69a49.27,49.27,0,0,0,7.39,0c1.77-.1,2.32.41,2.3,2.24-.09,9,0,18-.08,27,0,1.93.42,2.75,2.47,2.54,1.65-.17,3.34,0,5.54,0Z" transform="translate(-6.15 -5.99)"/><path class="cls-3" d="M48,93.28c-4.75,8.16-9.29,16-14,24.09L20,93.29c2.22,0,4-.12,5.78,0S28,92.93,28,91.1c-.1-8.92,0-17.83-.09-26.74,0-2.08.37-3,2.69-2.81a33.8,33.8,0,0,0,6.44,0c2.23-.2,3,.4,2.93,2.8-.16,8.83,0,17.66-.11,26.5,0,2,.6,2.64,2.54,2.46C44.13,93.16,45.86,93.28,48,93.28Z" transform="translate(-6.15 -5.99)"/><path class="cls-4" d="M63.67,40.32c0-5.4,2.77-8.3,7.91-8.28,4.92,0,7.83,3.05,7.86,8.19s-3,8.45-7.88,8.46S63.66,45.69,63.67,40.32Z" transform="translate(-6.15 -5.99)"/><path class="cls-4" d="M47.1,40.45c0-6.31,5.15-10.15,10.68-7.94a5.92,5.92,0,0,1,3.4,3.15c.4.94.48,2-.62,2.48s-1.64-.09-2.12-1A4.07,4.07,0,0,0,56.33,35a3.86,3.86,0,0,0-4.69,1.3c-1.52,2-1.59,6.19-.08,8.13a3.87,3.87,0,0,0,4.71,1.24,4.09,4.09,0,0,0,2.3-2.59A1.47,1.47,0,0,1,60.43,42c1.14.32,1.12,1.27.93,2.14a5.53,5.53,0,0,1-3.89,4.14C51.87,50.21,47.13,46.6,47.1,40.45Z" transform="translate(-6.15 -5.99)"/><path class="cls-5" d="M83.54,51c1.46.08,2.39.11,3.32.18a.73.73,0,0,1,.76.75.75.75,0,0,1-.8.72,37.77,37.77,0,0,1-4.76,0c-1.33-.16-1.15-1.23-.53-2,.94-1.07,2.09-2,3.09-3,.73-.73,1.62-1.63.54-2.61s-1.83-.23-2.36.84c-.25.49-.63,1-1.29.61S81,45.58,81.27,45a3.45,3.45,0,0,1,5.88-.47,2.57,2.57,0,0,1-.36,3.29C85.89,48.83,84.87,49.7,83.54,51Z" transform="translate(-6.15 -5.99)"/><path class="cls-6" d="M67,40.29c0-3.46,1.76-5.63,4.51-5.59s4.56,2.37,4.53,5.67S74.15,46,71.45,46,67,43.72,67,40.29Z" transform="translate(-6.15 -5.99)"/></svg>